<svg xmlns="http://www.w3.org/2000/svg" viewBox="0 0 512 512">
  <rect width="512" height="512" rx="112" fill="#13224a"/>
  <path d="M136 88h168l84 84v232a24 24 0 0 1-24 24H136a24 24 0 0 1-24-24V112a24 24 0 0 1 24-24Z" fill="#ffffff"/>
  <path d="M304 88v60a24 24 0 0 0 24 24h60Z" fill="#b8c3e0"/>
  <rect x="156" y="196" width="156" height="18" rx="9" fill="#b8c3e0"/>
  <rect x="156" y="240" width="120" height="18" rx="9" fill="#b8c3e0"/>
  <rect x="156" y="284" width="96" height="18" rx="9" fill="#b8c3e0"/>
  <path d="M352 268l84 30v62c0 52-36 92-84 106-48-14-84-54-84-106v-62Z" fill="#f5b301" stroke="#13224a" stroke-width="14" stroke-linejoin="round"/>
  <path d="m314 362 28 28 52-56" fill="none" stroke="#13224a" stroke-width="22" stroke-linecap="round" stroke-linejoin="round"/>
</svg>
